<svg id="svg" version="1.1" width="400" height="400" viewBox="0 0 400 400" xmlns="http://www.w3.org/2000/svg" xmlns:xlink="http://www.w3.org/1999/xlink" ><g id="svgg"><path id="path0" d="M325.577 353.125 C 325.579 353.950,325.626 354.257,325.681 353.808 C 325.737 353.359,325.736 352.684,325.679 352.308 C 325.622 351.932,325.576 352.300,325.577 353.125 " stroke="none" fill="#004a7b" fill-rule="evenodd"></path><path id="path1" d="M87.032 25.020 C 80.015 25.929,74.075 30.829,71.676 37.685 C 70.436 41.230,70.478 43.555,72.070 59.188 C 72.801 66.372,73.378 72.250,73.351 72.250 C 73.324 72.250,71.952 71.799,70.302 71.247 C 33.555 58.961,0.031 96.615,16.659 131.500 C 23.165 145.151,33.509 152.121,58.375 159.613 C 71.110 163.450,93.798 168.474,97.058 168.178 L 98.510 168.047 100.870 172.711 C 109.112 189.003,114.447 197.298,133.534 223.500 C 140.495 233.056,151.760 248.525,158.567 257.875 L 170.944 274.875 149.285 275.009 C 125.126 275.157,126.790 275.033,122.875 276.977 C 119.017 278.892,116.283 281.674,114.378 285.625 C 112.430 289.662,112.500 288.588,112.500 314.487 L 112.500 337.500 108.237 337.500 C 103.128 337.500,101.322 337.835,98.125 339.378 C 83.962 346.210,83.962 366.290,98.125 373.122 C 102.398 375.184,92.345 375.000,200.799 375.003 C 296.061 375.006,297.650 375.014,299.178 375.493 C 309.526 378.738,321.438 376.329,329.688 369.326 C 331.284 367.970,331.283 368.150,329.710 366.076 C 324.251 358.878,324.295 348.864,329.819 341.625 C 331.621 339.263,352.400 318.738,354.124 317.617 C 361.377 312.900,370.524 313.158,377.415 318.274 C 378.912 319.386,378.767 319.475,380.237 316.536 C 385.623 305.768,384.405 292.656,377.098 282.735 C 375.425 280.462,330.582 235.659,328.250 233.930 C 318.636 226.799,306.092 225.489,295.140 230.472 C 290.333 232.659,289.936 233.017,268.111 254.795 L 247.847 275.016 244.701 274.945 L 241.555 274.875 263.917 244.250 C 276.216 227.406,288.059 211.150,290.234 208.125 C 298.812 196.197,305.672 184.909,311.844 172.566 L 313.999 168.258 315.437 168.399 C 319.256 168.776,346.011 162.431,359.250 158.008 C 378.123 151.704,386.463 146.441,392.935 136.750 C 401.466 123.976,402.445 106.875,395.445 92.878 C 385.717 73.427,362.429 63.988,342.091 71.252 C 338.691 72.467,338.963 72.459,339.123 71.344 C 339.519 68.581,341.749 44.734,341.746 43.298 C 341.722 34.227,334.462 26.206,325.184 25.000 C 322.924 24.707,89.300 24.726,87.032 25.020 M325.268 37.781 C 327.501 38.797,329.243 41.284,329.248 43.465 C 329.252 45.565,324.994 87.177,324.242 92.375 C 318.551 131.734,303.922 168.047,280.732 200.375 C 279.253 202.438,266.350 220.044,252.059 239.500 L 226.077 274.875 206.247 274.875 L 186.417 274.875 163.690 243.750 C 151.190 226.631,138.583 209.363,135.674 205.375 C 118.070 181.242,107.292 160.995,98.880 136.250 C 92.003 116.022,88.862 100.587,86.262 74.250 C 85.712 68.681,85.211 63.760,85.147 63.314 L 85.032 62.504 171.454 62.439 L 257.875 62.375 258.878 61.838 C 263.559 59.331,263.557 53.197,258.875 50.666 L 257.875 50.125 170.853 50.061 L 83.831 49.996 83.521 46.436 C 83.047 40.984,84.496 38.264,88.271 37.521 C 90.573 37.067,324.263 37.324,325.268 37.781 M279.875 50.229 C 274.215 51.645,273.415 59.049,278.622 61.838 C 280.196 62.681,307.304 62.681,308.878 61.838 C 313.559 59.331,313.557 53.197,308.875 50.666 C 307.835 50.103,281.936 49.713,279.875 50.229 M61.500 81.655 C 65.591 82.485,69.497 84.101,72.848 86.348 C 73.793 86.982,74.651 87.500,74.754 87.500 C 74.858 87.500,75.018 88.147,75.110 88.938 C 77.501 109.405,84.803 137.575,91.895 153.688 C 92.213 154.409,92.440 155.000,92.400 155.000 C 91.628 155.000,79.174 152.235,73.125 150.720 C 41.709 142.855,30.504 136.008,25.920 121.875 C 18.629 99.400,38.462 76.980,61.500 81.655 M361.572 82.123 C 386.350 86.444,396.172 117.076,378.461 134.789 C 372.708 140.543,357.091 146.631,334.905 151.771 C 328.991 153.141,320.179 154.969,320.038 154.855 C 319.990 154.816,320.739 152.780,321.702 150.330 C 328.867 132.099,334.044 112.498,336.792 93.188 C 337.237 90.059,337.699 87.500,337.818 87.500 C 337.937 87.500,338.893 86.979,339.942 86.342 C 346.382 82.433,354.391 80.871,361.572 82.123 M204.748 87.734 C 203.258 88.187,202.107 89.235,192.466 98.920 C 181.333 110.103,181.612 109.745,181.795 112.623 C 181.998 115.810,184.260 118.024,187.500 118.208 C 190.117 118.355,190.781 117.945,195.716 113.122 L 200.000 108.936 200.000 148.200 L 200.000 187.465 192.938 187.545 C 185.149 187.633,184.885 187.684,183.159 189.409 C 180.777 191.791,180.716 196.298,183.038 198.408 C 184.753 199.966,183.323 199.875,206.000 199.875 L 226.625 199.875 227.628 199.338 C 231.498 197.265,232.336 192.404,229.341 189.409 C 227.615 187.684,227.351 187.633,219.563 187.545 L 212.500 187.465 212.500 140.278 C 212.500 98.175,212.458 92.949,212.108 91.772 C 211.225 88.798,207.667 86.846,204.748 87.734 M166.250 220.500 L 166.250 230.750 167.500 230.750 L 168.750 230.750 168.750 220.500 L 168.750 210.250 167.500 210.250 L 166.250 210.250 166.250 220.500 M177.918 215.858 C 174.116 216.880,171.987 221.199,173.087 225.658 C 174.285 230.510,179.048 232.404,185.188 230.467 C 185.944 230.229,186.000 230.135,186.000 229.097 C 186.000 228.026,185.979 227.994,185.449 228.277 C 180.861 230.733,175.250 228.566,175.250 224.338 L 175.250 223.750 180.911 223.750 L 186.572 223.750 186.406 221.938 C 185.961 217.069,182.537 214.617,177.918 215.858 M193.625 215.659 C 190.966 216.065,190.250 216.457,190.250 217.507 C 190.250 218.053,190.278 218.499,190.313 218.497 C 190.347 218.495,191.088 218.270,191.960 217.997 C 195.753 216.808,198.826 217.848,199.174 220.440 L 199.306 221.429 196.292 221.553 C 191.672 221.743,190.041 222.703,189.451 225.579 C 188.454 230.437,194.549 233.260,198.188 229.627 L 199.250 228.566 199.250 229.658 L 199.250 230.750 200.525 230.750 L 201.800 230.750 201.691 225.438 C 201.576 219.876,201.436 219.056,200.347 217.588 C 199.256 216.116,196.261 215.257,193.625 215.659 M210.875 215.623 C 210.738 215.669,210.313 215.775,209.931 215.859 C 205.723 216.789,204.369 225.269,207.840 228.959 C 209.973 231.225,213.823 231.281,215.761 229.075 L 216.574 228.148 216.444 229.972 C 216.150 234.083,212.884 235.389,207.938 233.375 C 207.164 233.059,207.327 235.091,208.104 235.445 C 211.123 236.821,215.625 236.227,217.337 234.227 C 218.753 232.573,218.824 232.104,218.936 223.688 L 219.038 216.000 217.769 216.000 L 216.500 216.000 216.500 217.009 L 216.500 218.017 215.726 217.136 C 214.723 215.994,212.160 215.194,210.875 215.623 M245.168 215.858 C 241.366 216.880,239.237 221.199,240.337 225.658 C 241.535 230.510,246.298 232.404,252.438 230.467 C 253.194 230.229,253.250 230.135,253.250 229.097 C 253.250 228.026,253.229 227.994,252.699 228.277 C 248.111 230.733,242.500 228.566,242.500 224.338 L 242.500 223.750 248.161 223.750 L 253.822 223.750 253.656 221.938 C 253.211 217.069,249.787 214.617,245.168 215.858 M224.000 220.947 C 224.000 227.633,224.529 229.614,226.573 230.584 C 228.809 231.645,231.014 231.302,232.683 229.633 L 233.750 228.566 233.750 229.658 L 233.750 230.750 235.000 230.750 L 236.250 230.750 236.250 223.375 L 236.250 216.000 235.000 216.000 L 233.750 216.000 233.750 220.947 C 233.750 227.547,232.929 229.250,229.747 229.250 C 226.965 229.250,226.500 228.107,226.500 221.258 L 226.500 216.000 225.250 216.000 L 224.000 216.000 224.000 220.947 M182.004 217.964 C 182.993 218.490,183.990 220.040,183.996 221.063 L 184.000 221.750 179.625 221.750 C 176.784 221.750,175.250 221.660,175.250 221.492 C 175.250 218.651,179.310 216.530,182.004 217.964 M214.427 217.991 C 218.278 220.339,216.674 228.748,212.375 228.748 C 209.600 228.748,208.375 227.026,208.375 223.125 C 208.375 219.224,209.600 217.502,212.375 217.502 C 213.176 217.502,213.913 217.678,214.427 217.991 M249.254 217.964 C 250.243 218.490,251.240 220.040,251.246 221.063 L 251.250 221.750 246.875 221.750 C 244.034 221.750,242.500 221.660,242.500 221.492 C 242.500 218.651,246.560 216.530,249.254 217.964 M199.250 224.508 C 199.250 228.303,194.994 230.794,192.600 228.400 C 190.081 225.881,192.087 223.556,196.813 223.519 L 199.250 223.500 199.250 224.508 M201.500 247.000 L 201.500 257.250 202.750 257.250 L 204.000 257.250 204.000 256.279 L 204.000 255.309 204.938 256.242 C 207.667 258.958,212.135 257.815,213.881 253.953 C 217.188 246.642,210.092 238.349,204.939 243.502 L 204.000 244.441 204.000 240.596 L 204.000 236.750 202.750 236.750 L 201.500 236.750 201.500 247.000 M218.750 247.000 L 218.750 257.250 220.000 257.250 L 221.250 257.250 221.250 247.000 L 221.250 236.750 220.000 236.750 L 218.750 236.750 218.750 247.000 M174.500 240.375 L 174.500 242.500 173.625 242.500 C 172.771 242.500,172.750 242.524,172.750 243.500 C 172.750 244.471,172.775 244.500,173.603 244.500 L 174.456 244.500 174.543 249.563 C 174.664 256.546,174.927 256.936,179.688 257.193 L 182.000 257.318 182.000 256.284 L 182.000 255.250 180.000 255.250 C 176.941 255.250,177.000 255.366,177.000 249.375 L 177.000 244.500 179.500 244.500 L 182.000 244.500 182.000 243.500 L 182.000 242.500 179.500 242.500 L 177.000 242.500 177.000 240.375 L 177.000 238.250 175.750 238.250 L 174.500 238.250 174.500 240.375 M188.375 242.159 C 185.716 242.565,185.000 242.957,185.000 244.007 C 185.000 244.553,185.028 244.999,185.063 244.997 C 185.097 244.995,185.838 244.770,186.710 244.497 C 190.503 243.308,193.576 244.348,193.924 246.940 L 194.056 247.929 191.042 248.053 C 186.422 248.243,184.791 249.203,184.201 252.079 C 183.204 256.937,189.299 259.760,192.938 256.127 L 194.000 255.066 194.000 256.158 L 194.000 257.250 195.275 257.250 L 196.550 257.250 196.441 251.938 C 196.326 246.376,196.186 245.556,195.097 244.088 C 194.006 242.616,191.011 241.757,188.375 242.159 M230.418 242.358 C 226.616 243.380,224.487 247.699,225.587 252.158 C 226.785 257.010,231.548 258.904,237.688 256.967 C 238.444 256.729,238.500 256.635,238.500 255.597 C 238.500 254.526,238.479 254.494,237.949 254.777 C 233.361 257.233,227.750 255.066,227.750 250.838 L 227.750 250.250 233.411 250.250 L 239.072 250.250 238.906 248.438 C 238.461 243.569,235.037 241.117,230.418 242.358 M210.623 244.998 C 212.855 247.162,212.843 252.600,210.601 254.773 C 208.625 256.689,205.358 255.647,204.385 252.791 C 202.447 247.104,206.968 241.456,210.623 244.998 M234.504 244.464 C 235.493 244.990,236.490 246.540,236.496 247.563 L 236.500 248.250 232.125 248.250 C 229.284 248.250,227.750 248.160,227.750 247.992 C 227.750 245.151,231.810 243.030,234.504 244.464 M194.000 251.008 C 194.000 254.803,189.744 257.294,187.350 254.900 C 184.831 252.381,186.837 250.056,191.563 250.019 L 194.000 250.000 194.000 251.008 M323.593 287.741 C 327.443 288.782,334.977 293.271,341.178 298.219 C 342.334 299.142,342.406 299.088,338.145 300.486 C 333.415 302.037,334.286 302.147,330.813 299.557 C 322.716 293.518,313.500 291.503,313.500 295.772 C 313.500 297.334,314.857 298.168,319.750 299.618 C 327.324 301.861,329.847 304.272,329.854 309.273 C 329.868 318.912,315.315 322.179,304.584 314.947 L 303.042 313.908 304.550 310.891 C 305.379 309.232,306.090 307.839,306.130 307.794 C 306.170 307.750,306.877 308.174,307.701 308.736 C 313.770 312.879,320.836 313.497,321.414 309.936 C 321.713 308.092,320.211 307.144,314.378 305.495 C 307.503 303.552,305.134 301.248,305.128 296.500 C 305.119 289.068,313.608 285.041,323.593 287.741 M265.308 293.688 L 265.375 300.125 271.683 300.192 L 277.992 300.259 278.058 293.817 L 278.125 287.375 282.125 287.375 L 286.125 287.375 286.189 302.938 L 286.254 318.500 282.127 318.500 L 278.000 318.500 278.000 312.500 L 278.000 306.500 271.625 306.500 L 265.250 306.500 265.250 312.500 L 265.250 318.500 261.250 318.500 L 257.250 318.500 257.250 302.875 L 257.250 287.250 261.246 287.250 L 265.242 287.250 265.308 293.688 M299.250 302.875 L 299.250 318.500 295.250 318.500 L 291.250 318.500 291.250 302.875 L 291.250 287.250 295.250 287.250 L 299.250 287.250 299.250 302.875 M352.467 287.824 C 357.517 289.315,359.977 292.377,360.202 297.456 C 360.582 305.983,356.347 309.737,346.336 309.746 L 342.298 309.750 342.210 313.188 C 342.082 318.213,341.799 318.500,336.988 318.500 L 334.000 318.500 334.000 311.000 L 334.000 303.500 341.080 303.500 C 351.099 303.500,352.673 302.824,352.725 298.500 C 352.767 295.009,350.888 293.750,345.633 293.750 L 342.250 293.750 342.250 295.277 C 342.250 297.179,342.484 297.260,337.733 293.729 L 334.000 290.955 334.000 289.269 C 334.000 288.342,334.084 287.499,334.188 287.395 C 334.571 287.010,351.017 287.396,352.467 287.824 M237.500 287.622 C 237.500 287.689,237.094 288.726,236.597 289.925 C 235.450 292.696,234.557 296.209,234.341 298.795 C 234.179 300.744,234.136 300.851,233.125 301.861 C 231.364 303.623,231.250 304.271,231.250 312.500 C 231.250 320.723,231.365 321.378,233.118 323.132 C 235.289 325.303,238.693 325.571,241.221 323.771 L 241.909 323.281 249.015 330.390 L 256.122 337.500 190.561 337.500 L 125.000 337.500 125.000 315.170 C 125.000 290.025,124.905 291.332,126.873 289.364 C 128.859 287.378,123.804 287.542,183.813 287.520 C 213.341 287.509,237.500 287.555,237.500 287.622 M141.521 300.429 C 138.057 301.653,137.500 303.325,137.500 312.500 C 137.500 320.723,137.615 321.378,139.368 323.132 C 142.563 326.326,148.149 325.093,149.586 320.876 C 150.199 319.078,150.199 305.922,149.586 304.124 C 148.504 300.948,144.825 299.263,141.521 300.429 M172.771 300.429 C 169.307 301.653,168.750 303.325,168.750 312.500 C 168.750 320.723,168.865 321.378,170.618 323.132 C 173.813 326.326,179.399 325.093,180.836 320.876 C 181.449 319.078,181.449 305.922,180.836 304.124 C 179.754 300.948,176.075 299.263,172.771 300.429 M204.021 300.429 C 200.557 301.653,200.000 303.325,200.000 312.500 C 200.000 320.723,200.115 321.378,201.868 323.132 C 205.063 326.326,210.649 325.093,212.086 320.876 C 212.699 319.078,212.699 305.922,212.086 304.124 C 211.004 300.948,207.325 299.263,204.021 300.429 M350.750 343.625 L 350.750 346.500 349.250 346.500 L 347.750 346.500 347.750 348.613 L 347.750 350.725 349.188 350.800 L 350.625 350.875 350.750 356.500 C 350.890 362.817,350.998 363.262,352.765 364.859 C 354.613 366.528,358.613 366.988,361.500 365.863 C 363.122 365.231,363.131 365.211,362.627 363.323 C 361.829 360.328,361.962 360.485,360.578 360.902 C 357.665 361.778,357.210 360.964,357.306 355.056 L 357.375 350.875 360.063 350.804 L 362.750 350.733 362.750 348.625 L 362.750 346.517 360.063 346.446 L 357.375 346.375 357.304 343.563 L 357.234 340.750 353.992 340.750 L 350.750 340.750 350.750 343.625 M365.500 348.000 L 365.500 350.500 370.250 350.500 C 372.863 350.500,375.000 350.565,375.000 350.644 C 375.000 350.724,372.750 353.375,370.000 356.537 L 365.000 362.285 365.000 364.268 L 365.000 366.250 374.375 366.250 L 383.750 366.250 383.750 363.755 L 383.750 361.260 378.651 361.193 L 373.551 361.125 378.524 355.375 L 383.497 349.625 383.499 347.563 L 383.500 345.500 374.500 345.500 L 365.500 345.500 365.500 348.000 M274.875 356.250 L 281.121 362.500 192.998 362.498 L 104.875 362.495 103.625 361.904 C 101.343 360.825,100.011 358.741,100.011 356.250 C 100.011 353.759,101.343 351.675,103.625 350.596 L 104.875 350.005 186.752 350.002 L 268.629 350.000 274.875 356.250 " stroke="none" fill="#3c93d7" fill-rule="evenodd"></path><path id="path2" d="M147.687 37.437 C 179.897 37.472,232.603 37.472,264.812 37.437 C 297.022 37.403,270.669 37.374,206.250 37.374 C 141.831 37.374,115.478 37.403,147.687 37.437 M85.109 39.313 L 84.375 40.125 85.188 39.391 C 85.945 38.706,86.115 38.500,85.922 38.500 C 85.879 38.500,85.513 38.866,85.109 39.313 M83.325 43.750 C 83.325 44.506,83.372 44.816,83.429 44.438 C 83.486 44.059,83.486 43.441,83.429 43.063 C 83.372 42.684,83.325 42.994,83.325 43.750 M260.500 51.875 C 260.966 52.356,261.404 52.750,261.473 52.750 C 261.542 52.750,261.216 52.356,260.750 51.875 C 260.284 51.394,259.846 51.000,259.777 51.000 C 259.708 51.000,260.034 51.394,260.500 51.875 M276.737 51.938 L 275.875 52.875 276.813 52.013 C 277.685 51.212,277.865 51.000,277.674 51.000 C 277.632 51.000,277.210 51.422,276.737 51.938 M310.500 51.875 C 310.966 52.356,311.404 52.750,311.473 52.750 C 311.542 52.750,311.216 52.356,310.750 51.875 C 310.284 51.394,309.846 51.000,309.777 51.000 C 309.708 51.000,310.034 51.394,310.500 51.875 M328.308 52.750 C 328.308 53.231,328.359 53.428,328.422 53.188 C 328.485 52.947,328.485 52.553,328.422 52.313 C 328.359 52.072,328.308 52.269,328.308 52.750 M328.058 55.250 C 328.058 55.731,328.109 55.928,328.172 55.688 C 328.235 55.447,328.235 55.053,328.172 54.813 C 328.109 54.572,328.058 54.769,328.058 55.250 M326.558 70.250 C 326.558 70.731,326.609 70.928,326.672 70.688 C 326.735 70.447,326.735 70.053,326.672 69.813 C 326.609 69.572,326.558 69.769,326.558 70.250 M326.308 72.750 C 326.308 73.231,326.359 73.428,326.422 73.188 C 326.485 72.947,326.485 72.553,326.422 72.313 C 326.359 72.072,326.308 72.269,326.308 72.750 M326.058 75.250 C 326.058 75.731,326.109 75.928,326.172 75.688 C 326.235 75.447,326.235 75.053,326.172 74.813 C 326.109 74.572,326.058 74.769,326.058 75.250 M325.808 77.750 C 325.808 78.231,325.859 78.428,325.922 78.188 C 325.985 77.947,325.985 77.553,325.922 77.313 C 325.859 77.072,325.808 77.269,325.808 77.750 M325.558 80.250 C 325.558 80.731,325.609 80.928,325.672 80.688 C 325.735 80.447,325.735 80.053,325.672 79.813 C 325.609 79.572,325.558 79.769,325.558 80.250 M325.308 82.750 C 325.308 83.231,325.359 83.428,325.422 83.188 C 325.485 82.947,325.485 82.553,325.422 82.313 C 325.359 82.072,325.308 82.269,325.308 82.750 M192.624 98.563 L 182.625 108.625 192.688 98.626 C 202.040 89.333,202.862 88.500,202.686 88.500 C 202.651 88.500,198.123 93.028,192.624 98.563 M181.572 112.125 C 181.573 112.813,181.622 113.064,181.679 112.684 C 181.737 112.304,181.735 111.742,181.676 111.434 C 181.617 111.127,181.570 111.438,181.572 112.125 M191.859 116.813 L 191.125 117.625 191.938 116.891 C 192.384 116.487,192.750 116.121,192.750 116.078 C 192.750 115.885,192.544 116.055,191.859 116.813 M187.316 118.429 C 187.696 118.487,188.258 118.485,188.566 118.426 C 188.873 118.367,188.563 118.320,187.875 118.322 C 187.188 118.323,186.936 118.372,187.316 118.429 M300.676 167.132 C 300.307 167.884,300.059 168.500,300.124 168.500 C 300.292 168.500,301.553 165.969,301.440 165.857 C 301.389 165.806,301.045 166.380,300.676 167.132 M207.250 228.578 C 207.250 228.621,207.616 228.987,208.063 229.391 L 208.875 230.125 208.141 229.313 C 207.456 228.555,207.250 228.385,207.250 228.578 M259.188 287.436 C 260.322 287.482,262.178 287.482,263.313 287.436 C 264.447 287.390,263.519 287.352,261.250 287.352 C 258.981 287.352,258.053 287.390,259.188 287.436 M278.115 287.561 C 278.047 287.738,278.023 290.694,278.063 294.130 L 278.134 300.375 278.192 293.938 L 278.250 287.500 282.123 287.500 L 285.996 287.500 286.063 302.938 L 286.131 318.375 286.128 302.875 L 286.125 287.375 282.182 287.306 C 279.137 287.253,278.211 287.311,278.115 287.561 M293.188 287.436 C 294.322 287.482,296.178 287.482,297.313 287.436 C 298.447 287.390,297.519 287.352,295.250 287.352 C 292.981 287.352,292.053 287.390,293.188 287.436 M334.104 287.589 C 334.033 287.775,334.015 288.647,334.064 289.526 L 334.154 291.125 334.202 289.316 L 334.250 287.507 341.938 287.437 L 349.625 287.368 341.930 287.309 C 335.645 287.261,334.210 287.312,334.104 287.589 M129.021 287.929 C 128.414 288.144,127.448 288.789,126.873 289.364 C 124.905 291.332,125.000 290.025,125.000 315.170 L 125.000 337.500 190.561 337.500 L 256.122 337.500 249.015 330.390 L 241.909 323.281 241.221 323.771 C 238.693 325.571,235.289 325.303,233.118 323.132 C 231.365 321.378,231.250 320.723,231.250 312.500 C 231.250 304.271,231.364 303.623,233.125 301.861 C 234.136 300.851,234.179 300.744,234.341 298.795 C 234.557 296.209,235.450 292.696,236.597 289.925 C 237.094 288.726,237.500 287.689,237.500 287.622 C 237.500 287.247,130.092 287.551,129.021 287.929 M342.103 293.842 C 342.031 294.031,342.013 294.790,342.065 295.530 L 342.158 296.875 342.204 295.320 L 342.250 293.766 345.188 293.687 L 348.125 293.608 345.180 293.554 C 342.880 293.512,342.206 293.575,342.103 293.842 M145.876 300.414 C 149.449 301.632,150.000 303.245,150.000 312.500 C 150.000 320.723,149.885 321.378,148.132 323.132 C 144.937 326.326,139.351 325.093,137.914 320.876 C 137.301 319.078,137.301 305.922,137.914 304.124 C 138.993 300.958,142.575 299.289,145.876 300.414 M177.126 300.414 C 180.699 301.632,181.250 303.245,181.250 312.500 C 181.250 320.723,181.135 321.378,179.382 323.132 C 176.187 326.326,170.601 325.093,169.164 320.876 C 168.551 319.078,168.551 305.922,169.164 304.124 C 170.243 300.958,173.825 299.289,177.126 300.414 M208.376 300.414 C 211.949 301.632,212.500 303.245,212.500 312.500 C 212.500 320.723,212.385 321.378,210.632 323.132 C 207.437 326.326,201.851 325.093,200.414 320.876 C 199.801 319.078,199.801 305.922,200.414 304.124 C 201.493 300.958,205.075 299.289,208.376 300.414 M334.111 311.000 C 334.111 315.194,334.145 316.909,334.187 314.813 C 334.229 312.716,334.229 309.284,334.187 307.188 C 334.145 305.091,334.111 306.806,334.111 311.000 M357.237 306.438 L 356.375 307.375 357.313 306.513 C 357.828 306.040,358.250 305.618,358.250 305.576 C 358.250 305.385,358.038 305.565,357.237 306.438 M278.108 312.500 C 278.108 315.869,278.143 317.247,278.187 315.563 C 278.230 313.878,278.230 311.122,278.187 309.438 C 278.143 307.753,278.108 309.131,278.108 312.500 M329.818 309.250 C 329.818 309.869,329.867 310.122,329.926 309.813 C 329.986 309.503,329.986 308.997,329.926 308.688 C 329.867 308.378,329.818 308.631,329.818 309.250 M342.097 312.875 C 342.098 314.663,342.137 315.361,342.186 314.427 C 342.234 313.493,342.233 312.031,342.185 311.177 C 342.136 310.323,342.097 311.087,342.097 312.875 M357.345 343.500 C 357.345 345.081,357.385 345.728,357.435 344.938 C 357.484 344.147,357.484 342.853,357.435 342.063 C 357.385 341.272,357.345 341.919,357.345 343.500 M348.442 350.931 C 348.891 350.987,349.566 350.986,349.942 350.929 C 350.318 350.872,349.950 350.826,349.125 350.827 C 348.300 350.829,347.993 350.876,348.442 350.931 M357.361 351.072 C 357.293 351.249,357.271 353.246,357.313 355.510 L 357.388 359.625 357.444 355.321 L 357.500 351.017 360.188 350.937 L 362.875 350.856 360.180 350.803 C 358.172 350.764,357.453 350.832,357.361 351.072 M101.750 360.625 C 102.216 361.106,102.654 361.500,102.723 361.500 C 102.792 361.500,102.466 361.106,102.000 360.625 C 101.534 360.144,101.096 359.750,101.027 359.750 C 100.958 359.750,101.284 360.144,101.750 360.625 M383.842 363.750 C 383.842 365.194,383.884 365.784,383.934 365.063 C 383.985 364.341,383.985 363.159,383.934 362.438 C 383.884 361.716,383.842 362.306,383.842 363.750 " stroke="none" fill="#87bce6" fill-rule="evenodd"></path><path id="path3" d="M362.801 319.523 C 357.848 320.278,356.607 321.225,344.096 333.796 C 333.796 344.144,333.544 344.421,332.529 346.500 C 330.014 351.647,330.190 357.510,333.000 362.250 C 334.741 365.187,355.570 385.647,358.032 386.840 C 362.769 389.134,368.304 389.041,373.075 386.589 C 375.597 385.292,396.392 364.632,397.825 362.000 C 401.261 355.687,400.434 348.518,395.626 342.942 C 393.200 340.129,376.024 323.182,374.672 322.268 C 371.202 319.922,366.824 318.910,362.801 319.523 M357.500 343.625 L 357.500 346.500 360.125 346.500 L 362.750 346.500 362.750 348.750 L 362.750 351.000 360.125 351.000 L 357.500 351.000 357.500 355.586 C 357.500 361.194,357.936 361.867,360.851 360.759 C 361.887 360.365,361.884 360.362,362.472 362.509 C 362.775 363.615,363.080 364.667,363.149 364.848 C 363.554 365.904,357.598 366.942,355.120 366.248 C 351.472 365.227,350.750 363.608,350.750 356.451 L 350.750 351.000 349.250 351.000 L 347.750 351.000 347.750 348.750 L 347.750 346.500 349.250 346.500 L 350.750 346.500 350.750 343.625 L 350.750 340.750 354.125 340.750 L 357.500 340.750 357.500 343.625 M383.500 347.604 L 383.500 349.708 378.625 355.340 C 375.944 358.438,373.750 361.035,373.750 361.111 C 373.750 361.188,376.056 361.250,378.875 361.250 L 384.000 361.250 384.000 363.750 L 384.000 366.250 374.500 366.250 L 365.000 366.250 365.010 364.188 L 365.020 362.125 370.048 356.375 L 375.076 350.625 370.288 350.557 L 365.500 350.489 365.500 347.995 L 365.500 345.500 374.500 345.500 L 383.500 345.500 383.500 347.604 " stroke="none" fill="#ffd400" fill-rule="evenodd"></path><path id="path4" d="M87.543 37.817 C 84.051 38.935,82.844 42.669,83.909 49.063 L 84.065 50.000 170.845 50.005 C 268.263 50.012,258.592 49.829,260.594 51.702 C 263.784 54.686,262.804 60.145,258.750 61.980 C 257.625 62.489,257.606 62.489,171.438 62.495 C 102.657 62.499,85.250 62.563,85.250 62.813 C 85.252 63.872,87.610 86.227,88.145 90.250 C 93.002 126.780,106.495 162.345,127.225 193.259 C 128.958 195.843,143.031 215.291,158.500 236.477 L 186.625 274.998 206.250 274.993 L 225.875 274.988 249.750 242.463 C 281.634 199.027,282.324 198.077,285.863 192.750 C 306.335 161.937,319.665 126.388,324.484 89.750 C 325.615 81.156,329.236 43.386,329.020 42.445 C 328.524 40.289,327.017 38.587,324.959 37.861 C 323.654 37.400,88.981 37.357,87.543 37.817 M308.750 50.520 C 310.261 51.204,311.194 52.123,311.904 53.625 C 313.402 56.793,311.999 60.509,308.750 61.980 C 307.662 62.472,307.171 62.489,293.750 62.492 L 279.875 62.495 278.625 61.904 C 276.343 60.825,275.011 58.741,275.011 56.250 C 275.011 53.759,276.343 51.675,278.625 50.596 L 279.875 50.005 293.750 50.008 C 307.171 50.011,307.662 50.028,308.750 50.520 M208.885 87.970 C 210.157 88.547,211.821 90.418,212.206 91.702 C 212.427 92.439,212.500 104.478,212.500 140.092 L 212.500 187.500 219.438 187.505 C 227.065 187.512,227.643 187.610,229.344 189.202 C 232.534 192.186,231.554 197.645,227.500 199.480 C 226.398 199.979,225.958 199.989,205.966 199.995 L 185.557 200.000 184.220 199.301 C 179.908 197.049,180.306 190.215,184.873 188.088 C 186.089 187.522,186.323 187.505,193.063 187.502 L 200.000 187.500 200.000 148.190 L 200.000 108.880 195.688 113.165 C 190.734 118.087,190.321 118.362,187.875 118.362 C 183.323 118.362,180.070 113.374,182.096 109.500 C 182.907 107.947,202.183 88.788,203.625 88.101 C 205.188 87.356,207.411 87.300,208.885 87.970 M168.750 220.500 L 168.750 230.750 167.500 230.750 L 166.250 230.750 166.250 220.500 L 166.250 210.250 167.500 210.250 L 168.750 210.250 168.750 220.500 M182.285 215.790 C 184.705 216.515,186.267 218.775,186.449 221.813 L 186.564 223.750 180.896 223.750 L 175.227 223.750 175.397 224.688 C 176.171 228.961,180.241 230.334,185.578 228.123 C 185.983 227.954,186.022 228.061,185.953 229.152 L 185.875 230.370 184.250 230.822 C 177.618 232.669,172.875 229.616,172.875 223.500 C 172.875 217.569,176.985 214.202,182.285 215.790 M197.726 215.743 C 200.968 216.673,201.604 218.183,201.705 225.188 L 201.784 230.750 200.517 230.750 L 199.250 230.750 199.250 229.731 L 199.250 228.712 198.619 229.461 C 196.034 232.533,190.039 231.501,189.357 227.866 C 188.551 223.568,190.896 221.504,196.590 221.501 L 199.306 221.500 199.134 220.563 C 198.629 217.795,195.226 216.739,191.563 218.214 L 190.250 218.743 190.250 217.636 C 190.250 217.027,190.351 216.467,190.473 216.391 C 191.664 215.656,196.053 215.263,197.726 215.743 M214.420 216.022 C 215.013 216.309,215.723 216.830,215.999 217.181 L 216.500 217.817 216.500 216.909 L 216.500 216.000 217.750 216.000 L 219.000 216.000 219.000 223.460 C 219.000 234.505,218.232 236.011,212.508 236.184 C 208.900 236.293,207.652 235.791,207.549 234.191 L 207.473 233.006 208.674 233.540 C 212.622 235.295,216.050 233.653,216.426 229.828 L 216.568 228.375 216.033 229.041 C 213.312 232.425,207.484 230.750,206.131 226.194 C 204.142 219.493,209.078 213.436,214.420 216.022 M249.535 215.790 C 251.955 216.515,253.517 218.775,253.699 221.813 L 253.814 223.750 248.146 223.750 L 242.477 223.750 242.647 224.688 C 243.421 228.961,247.491 230.334,252.828 228.123 C 253.233 227.954,253.272 228.061,253.203 229.152 L 253.125 230.370 251.500 230.822 C 244.868 232.669,240.125 229.616,240.125 223.500 C 240.125 217.569,244.235 214.202,249.535 215.790 M226.543 221.438 C 226.648 228.143,227.119 229.270,229.804 229.245 C 232.802 229.216,233.592 227.558,233.706 221.063 L 233.794 216.000 235.022 216.000 L 236.250 216.000 236.250 223.375 L 236.250 230.750 235.000 230.750 L 233.750 230.750 233.750 229.731 L 233.750 228.712 233.119 229.461 C 231.269 231.661,227.587 231.888,225.556 229.929 C 224.223 228.644,224.000 227.409,224.000 221.330 L 224.000 216.000 225.229 216.000 L 226.458 216.000 226.543 221.438 M178.185 217.843 C 176.955 218.301,176.563 218.646,175.982 219.786 C 174.972 221.765,174.943 221.750,179.770 221.750 L 184.040 221.750 183.870 220.938 C 183.308 218.246,180.789 216.874,178.185 217.843 M211.161 217.746 C 207.813 218.801,207.242 225.818,210.319 228.094 C 213.151 230.189,216.361 227.549,216.361 223.125 C 216.361 219.076,214.162 216.801,211.161 217.746 M245.435 217.843 C 244.205 218.301,243.813 218.646,243.232 219.786 C 242.222 221.765,242.193 221.750,247.020 221.750 L 251.290 221.750 251.120 220.938 C 250.558 218.246,248.039 216.874,245.435 217.843 M194.273 223.771 C 190.347 224.542,191.403 229.734,195.365 229.140 C 197.544 228.813,198.802 227.364,199.144 224.786 L 199.314 223.500 197.345 223.527 C 196.261 223.542,194.879 223.652,194.273 223.771 M204.000 240.534 L 204.000 244.317 204.501 243.681 C 206.457 241.194,211.147 241.487,213.131 244.220 C 216.000 248.173,214.920 255.413,211.192 257.217 C 209.031 258.264,205.790 257.708,204.501 256.069 L 204.000 255.433 204.000 256.341 L 204.000 257.250 202.750 257.250 L 201.500 257.250 201.500 247.000 L 201.500 236.750 202.750 236.750 L 204.000 236.750 204.000 240.534 M221.250 247.000 L 221.250 257.250 220.000 257.250 L 218.750 257.250 218.750 247.000 L 218.750 236.750 220.000 236.750 L 221.250 236.750 221.250 247.000 M177.000 240.375 L 177.000 242.500 179.500 242.500 L 182.000 242.500 182.000 243.500 L 182.000 244.500 179.481 244.500 L 176.962 244.500 177.043 249.367 C 177.142 255.251,177.055 255.078,180.007 255.212 L 182.000 255.303 182.000 256.305 L 182.000 257.307 179.385 257.210 C 174.857 257.042,174.501 256.476,174.500 249.438 L 174.500 244.500 173.625 244.500 C 172.771 244.500,172.750 244.476,172.750 243.500 C 172.750 242.524,172.771 242.500,173.625 242.500 L 174.500 242.500 174.500 240.375 L 174.500 238.250 175.750 238.250 L 177.000 238.250 177.000 240.375 M192.476 242.243 C 195.718 243.173,196.354 244.683,196.455 251.688 L 196.534 257.250 195.267 257.250 L 194.000 257.250 194.000 256.231 L 194.000 255.212 193.369 255.961 C 190.784 259.033,184.789 258.001,184.107 254.366 C 183.301 250.068,185.646 248.004,191.340 248.001 L 194.056 248.000 193.884 247.063 C 193.379 244.295,189.976 243.239,186.313 244.714 L 185.000 245.243 185.000 244.136 C 185.000 243.527,185.101 242.967,185.223 242.891 C 186.414 242.156,190.803 241.763,192.476 242.243 M234.785 242.290 C 237.205 243.015,238.767 245.275,238.949 248.313 L 239.064 250.250 233.396 250.250 L 227.727 250.250 227.897 251.188 C 228.671 255.461,232.741 256.834,238.078 254.623 C 238.483 254.454,238.522 254.561,238.453 255.652 L 238.375 256.870 236.750 257.322 C 230.118 259.169,225.375 256.116,225.375 250.000 C 225.375 244.069,229.485 240.702,234.785 242.290 M207.125 244.173 C 202.429 245.448,203.278 255.607,208.080 255.607 C 210.749 255.607,212.110 253.672,212.110 249.875 C 212.110 245.778,210.019 243.386,207.125 244.173 M230.685 244.343 C 229.455 244.801,229.063 245.146,228.482 246.286 C 227.472 248.265,227.443 248.250,232.270 248.250 L 236.540 248.250 236.370 247.438 C 235.808 244.746,233.289 243.374,230.685 244.343 M189.023 250.271 C 185.097 251.042,186.153 256.234,190.115 255.640 C 192.294 255.313,193.552 253.864,193.894 251.286 L 194.064 250.000 192.095 250.027 C 191.011 250.042,189.629 250.152,189.023 250.271 M313.813 287.374 C 307.598 288.500,304.006 293.232,305.358 298.511 C 306.262 302.039,308.717 303.832,315.104 305.627 C 320.063 307.020,321.500 307.918,321.500 309.625 C 321.500 313.572,313.128 312.988,307.449 308.645 L 306.274 307.745 304.757 310.685 C 303.025 314.041,303.014 313.936,305.218 315.269 C 316.692 322.207,330.293 318.477,329.698 308.555 C 329.424 303.987,327.009 301.873,319.516 299.640 C 314.705 298.206,313.500 297.426,313.500 295.746 C 313.500 291.533,322.574 293.379,330.436 299.191 C 331.875 300.255,333.239 301.262,333.468 301.429 C 333.808 301.678,334.626 301.496,338.001 300.420 L 342.119 299.106 340.747 298.021 C 329.264 288.938,321.693 285.945,313.813 287.374 M257.250 303.000 L 257.250 318.500 261.250 318.500 L 265.250 318.500 265.250 312.500 L 265.250 306.500 271.750 306.500 L 278.250 306.500 278.250 312.500 L 278.250 318.500 282.125 318.500 L 286.000 318.500 286.000 303.000 L 286.000 287.500 282.125 287.500 L 278.250 287.500 278.250 293.875 L 278.250 300.250 271.750 300.250 L 265.250 300.250 265.250 293.875 L 265.250 287.500 261.250 287.500 L 257.250 287.500 257.250 303.000 M291.250 303.000 L 291.250 318.500 295.250 318.500 L 299.250 318.500 299.250 303.000 L 299.250 287.500 295.250 287.500 L 291.250 287.500 291.250 303.000 M334.257 289.313 L 334.265 291.125 338.070 293.914 L 341.875 296.702 342.000 295.164 L 342.125 293.625 345.647 293.633 C 348.902 293.640,349.261 293.688,350.380 294.264 C 353.428 295.832,353.630 300.748,350.726 302.671 L 349.663 303.375 341.956 303.451 L 334.250 303.527 334.250 311.034 L 334.250 318.541 337.396 318.458 L 340.542 318.375 341.271 317.559 L 342.000 316.742 342.000 313.246 L 342.000 309.750 345.813 309.746 C 356.723 309.733,362.265 303.967,359.901 295.088 C 358.247 288.876,355.067 287.500,342.363 287.500 L 334.250 287.500 334.257 289.313 M104.875 350.234 C 99.222 351.610,98.423 359.022,103.625 361.834 L 104.625 362.375 192.875 362.439 L 281.125 362.503 274.877 356.252 L 268.629 350.000 187.127 350.026 C 142.301 350.040,105.287 350.133,104.875 350.234 " stroke="none" fill="#d3e6f6" fill-rule="evenodd"></path></g></svg>