<svg id="svg" version="1.1" width="400" height="500" xmlns="http://www.w3.org/2000/svg" xmlns:xlink="http://www.w3.org/1999/xlink" style="display: block;"><g id="svgg"><path id="path0" d="M34.400 76.427 C 32.400 77.046,30.283 78.355,29.636 79.371 C 27.618 82.542,27.000 146.244,27.966 251.600 C 28.947 358.574,28.871 360.072,22.356 361.610 L 20.449 362.061 22.745 363.630 C 31.591 369.680,33.516 378.602,28.433 390.000 C 27.145 392.888,26.454 395.597,26.697 396.800 C 26.920 397.900,27.485 400.420,27.954 402.400 C 28.423 404.380,29.040 418.669,29.326 434.152 L 29.845 462.304 33.253 464.752 L 36.662 467.200 167.331 467.134 C 319.150 467.058,364.795 466.517,368.400 464.753 L 370.800 463.579 371.358 370.390 C 371.918 276.693,372.969 223.386,374.301 221.005 C 374.801 220.112,374.194 217.790,372.310 213.390 C 367.824 202.909,368.393 197.925,374.971 190.056 C 377.573 186.944,378.328 184.800,376.821 184.800 C 373.574 184.800,372.913 175.449,371.363 107.534 C 370.676 77.407,370.735 77.679,364.498 76.108 C 362.088 75.501,349.585 75.200,326.807 75.200 L 292.723 75.200 288.162 78.114 C 285.653 79.717,281.122 83.677,278.093 86.914 L 272.585 92.800 200.132 92.800 L 127.679 92.800 120.839 85.800 C 109.755 74.455,113.122 75.190,72.524 75.256 C 45.381 75.300,37.230 75.550,34.400 76.427 M85.993 124.835 C 103.781 126.522,105.562 135.251,88.830 138.740 C 79.762 140.631,78.244 145.223,83.746 154.120 C 84.986 156.125,87.260 159.859,88.800 162.419 C 90.340 164.978,92.860 168.586,94.400 170.437 C 99.005 175.973,99.795 182.960,96.221 186.535 C 92.810 189.945,69.174 191.512,61.841 188.814 C 55.242 186.386,56.325 175.522,63.513 172.042 C 65.374 171.141,67.947 169.308,69.231 167.967 L 71.566 165.531 69.237 161.365 C 67.956 159.074,65.051 154.680,62.782 151.600 C 58.771 146.156,57.928 144.631,54.457 136.532 C 52.170 131.198,52.254 130.892,57.000 127.249 L 61.200 124.026 69.200 124.014 C 73.600 124.007,81.157 124.377,85.993 124.835 M285.913 127.474 C 288.364 130.504,288.400 130.677,288.400 139.500 C 288.400 151.024,287.398 153.389,279.930 159.490 C 272.896 165.236,272.851 165.002,282.400 172.211 C 286.388 175.221,286.758 176.968,284.864 183.841 C 283.585 188.484,282.282 188.740,276.191 185.551 C 266.955 180.716,261.063 181.187,252.134 187.471 C 244.064 193.150,241.198 183.462,241.783 152.493 C 242.318 124.235,242.524 124.040,271.513 124.295 L 283.426 124.400 285.913 127.474 M340.273 126.914 C 349.971 131.823,344.370 138.344,330.400 138.408 C 325.549 138.430,321.310 140.016,318.767 142.760 L 316.663 145.030 318.931 146.886 C 320.179 147.907,321.650 148.755,322.200 148.771 C 322.750 148.787,323.200 149.160,323.200 149.600 C 323.200 150.040,324.587 150.400,326.282 150.400 C 329.971 150.400,334.690 153.292,335.049 155.773 C 335.352 157.873,333.706 158.887,325.600 161.595 C 318.677 163.908,316.541 168.091,322.000 168.642 C 323.320 168.776,325.937 169.591,327.816 170.454 C 329.694 171.317,332.256 171.945,333.509 171.849 C 342.073 171.197,346.351 186.014,338.616 189.538 C 333.728 191.765,315.384 191.325,306.192 188.760 C 300.034 187.041,298.432 179.302,298.173 150.023 L 298.000 130.516 300.309 128.101 C 303.318 124.953,304.061 124.858,322.273 125.277 C 334.327 125.555,338.304 125.917,340.273 126.914 M150.944 126.808 C 160.538 130.817,156.872 138.591,145.156 139.081 L 138.440 139.363 133.322 144.789 C 120.844 158.016,124.683 170.267,141.368 170.464 C 153.100 170.603,156.315 172.887,154.463 179.765 C 149.776 197.172,119.914 189.567,112.700 169.128 C 110.892 164.006,110.218 151.152,111.451 145.319 C 112.197 141.791,123.750 129.112,128.233 126.902 C 131.752 125.167,146.866 125.105,150.944 126.808 M214.385 127.658 C 217.879 129.226,219.391 130.464,220.739 132.863 C 221.713 134.595,224.075 137.321,225.990 138.921 C 236.046 147.327,237.428 166.779,228.350 172.135 C 226.838 173.028,225.600 174.192,225.600 174.722 C 225.600 176.302,220.837 180.341,213.600 184.899 L 206.800 189.181 200.000 189.191 L 193.200 189.200 185.804 184.522 C 172.541 176.132,166.433 166.628,166.409 154.343 C 166.395 147.182,168.220 143.271,175.266 135.369 C 181.543 128.327,181.723 128.207,189.200 125.966 C 193.584 124.652,210.171 125.767,214.385 127.658 M262.616 135.828 C 258.209 136.517,255.717 145.248,259.063 148.276 C 260.757 149.809,264.926 150.010,267.453 148.680 C 273.821 145.328,269.822 134.702,262.616 135.828 M191.263 143.624 C 180.044 155.796,183.987 170.400,198.493 170.400 C 208.658 170.400,211.656 168.412,213.859 160.212 C 215.707 153.339,215.636 152.889,211.888 147.533 C 205.340 138.177,197.630 136.717,191.263 143.624 M335.758 224.657 C 346.671 225.804,347.666 226.718,348.320 236.186 C 348.602 240.264,348.883 280.500,348.945 325.600 C 349.093 432.101,349.065 432.432,339.977 434.606 C 337.536 435.189,292.680 435.558,198.765 435.766 L 61.130 436.072 57.558 434.076 C 55.594 432.978,53.180 431.328,52.194 430.409 L 50.400 428.738 50.402 345.769 C 50.403 300.136,50.643 255.420,50.934 246.400 L 51.464 230.000 53.719 227.892 C 56.410 225.375,59.067 224.780,71.200 223.978 C 84.498 223.099,326.855 223.721,335.758 224.657 " stroke="none" fill="#fb9761" fill-rule="evenodd"></path><path id="path1" d="M57.000 127.249 C 52.254 130.892,52.170 131.198,54.457 136.532 C 57.928 144.631,58.771 146.156,62.782 151.600 C 65.051 154.680,67.956 159.074,69.237 161.365 L 71.566 165.531 69.231 167.967 C 67.947 169.308,65.374 171.141,63.513 172.042 C 56.325 175.522,55.242 186.386,61.841 188.814 C 69.174 191.512,92.810 189.945,96.221 186.535 C 99.795 182.960,99.005 175.973,94.400 170.437 C 92.860 168.586,90.340 164.978,88.800 162.419 C 87.260 159.859,84.986 156.125,83.746 154.120 C 78.244 145.223,79.762 140.631,88.830 138.740 C 95.698 137.308,97.163 136.610,98.913 133.939 C 103.224 127.361,93.093 123.977,69.200 124.014 L 61.200 124.026 57.000 127.249 M254.061 124.843 C 243.152 126.127,242.244 128.172,241.783 152.493 C 241.198 183.462,244.064 193.150,252.134 187.471 C 261.063 181.187,266.955 180.716,276.191 185.551 C 282.282 188.740,283.585 188.484,284.864 183.841 C 286.758 176.968,286.388 175.221,282.400 172.211 C 272.851 165.002,272.896 165.236,279.930 159.490 C 287.398 153.389,288.400 151.024,288.400 139.500 C 288.400 130.677,288.364 130.504,285.913 127.474 L 283.426 124.400 271.513 124.295 C 264.961 124.238,257.108 124.484,254.061 124.843 M304.709 125.303 C 303.559 125.513,301.579 126.772,300.309 128.101 L 298.000 130.516 298.173 150.023 C 298.432 179.302,300.034 187.041,306.192 188.760 C 315.384 191.325,333.728 191.765,338.616 189.538 C 346.351 186.014,342.073 171.197,333.509 171.849 C 332.256 171.945,329.694 171.317,327.816 170.454 C 325.937 169.591,323.320 168.776,322.000 168.642 C 316.541 168.091,318.677 163.908,325.600 161.595 C 333.706 158.887,335.352 157.873,335.049 155.773 C 334.690 153.292,329.971 150.400,326.282 150.400 C 324.587 150.400,323.200 150.040,323.200 149.600 C 323.200 149.160,322.750 148.787,322.200 148.771 C 321.650 148.755,320.179 147.907,318.931 146.886 L 316.663 145.030 318.767 142.760 C 321.310 140.016,325.549 138.430,330.400 138.408 C 344.370 138.344,349.971 131.823,340.273 126.914 C 337.736 125.629,309.835 124.366,304.709 125.303 M128.233 126.902 C 123.750 129.112,112.197 141.791,111.451 145.319 C 108.148 160.942,112.745 175.272,123.474 182.800 C 138.068 193.040,151.236 191.750,154.463 179.765 C 156.315 172.887,153.100 170.603,141.368 170.464 C 124.683 170.267,120.844 158.016,133.322 144.789 L 138.440 139.363 145.156 139.081 C 154.417 138.693,158.707 134.432,154.893 129.408 C 151.993 125.589,134.274 123.923,128.233 126.902 M189.200 125.966 C 181.723 128.207,181.543 128.327,175.266 135.369 C 168.220 143.271,166.395 147.182,166.409 154.343 C 166.433 166.628,172.541 176.132,185.804 184.522 L 193.200 189.200 200.000 189.191 L 206.800 189.181 213.600 184.899 C 220.837 180.341,225.600 176.302,225.600 174.722 C 225.600 174.192,226.838 173.028,228.350 172.135 C 237.428 166.779,236.046 147.327,225.990 138.921 C 224.075 137.321,221.713 134.595,220.739 132.863 C 217.475 127.055,199.028 123.021,189.200 125.966 M268.819 138.206 C 271.564 141.695,270.888 146.872,267.453 148.680 C 262.347 151.368,257.600 148.912,257.600 143.584 C 257.600 136.271,264.642 132.896,268.819 138.206 M206.965 141.400 C 209.537 143.637,215.200 152.125,215.200 153.745 C 215.200 164.894,209.677 170.400,198.493 170.400 C 183.987 170.400,180.044 155.796,191.263 143.624 C 195.122 139.437,203.365 138.270,206.965 141.400 M74.185 238.154 C 67.056 240.012,64.867 275.793,71.241 286.274 L 72.776 288.800 82.988 288.789 C 99.807 288.771,98.933 290.013,99.633 265.119 C 100.240 243.513,99.884 240.969,95.977 239.001 C 93.301 237.653,78.339 237.072,74.185 238.154 M132.131 238.347 C 119.593 239.558,118.800 241.086,118.800 264.034 C 118.800 283.438,119.079 284.533,124.662 287.067 C 128.619 288.862,222.694 289.120,226.893 287.347 C 231.333 285.472,231.604 284.077,231.563 263.270 C 231.521 242.013,231.064 239.853,226.408 238.922 C 222.497 238.139,139.512 237.633,132.131 238.347 M257.403 238.879 C 251.975 240.548,251.425 241.846,250.825 254.400 C 249.868 274.456,251.536 285.140,255.957 287.270 C 258.965 288.720,271.933 289.115,274.400 287.833 C 281.600 284.091,284.440 250.206,278.286 241.464 C 275.706 237.799,265.160 236.494,257.403 238.879 M304.372 238.306 C 297.542 241.308,296.264 277.997,302.685 286.778 C 305.481 290.602,327.999 289.438,329.711 285.380 C 331.511 281.114,331.255 246.032,329.399 242.637 C 327.343 238.879,309.928 235.864,304.372 238.306 M73.672 304.667 C 68.774 306.117,68.400 307.850,68.400 329.059 C 68.400 355.760,68.058 355.200,84.372 355.200 C 99.990 355.200,99.200 356.580,99.200 329.284 L 99.200 308.889 97.271 306.645 C 95.275 304.321,79.350 302.987,73.672 304.667 M136.400 304.685 C 121.118 305.452,119.296 307.474,117.906 325.200 C 116.238 346.480,120.328 353.008,136.183 354.376 C 147.861 355.384,218.274 355.058,225.306 353.964 C 230.463 353.162,230.736 352.071,231.042 331.083 C 231.360 309.328,230.925 306.851,226.578 305.619 C 223.078 304.627,152.188 303.893,136.400 304.685 M306.400 304.579 C 300.489 305.647,298.823 311.259,298.854 330.000 C 298.893 353.308,300.113 355.200,315.108 355.200 C 328.296 355.200,329.419 354.361,331.159 343.200 C 333.900 325.620,331.332 306.827,325.906 304.764 C 323.920 304.009,310.273 303.880,306.400 304.579 M259.388 305.612 C 257.511 306.002,255.615 306.543,255.176 306.815 C 249.884 310.085,248.532 345.070,253.480 350.704 C 258.851 356.820,273.969 356.764,278.193 350.612 C 284.284 341.741,281.803 309.063,274.838 306.414 C 271.973 305.325,263.012 304.860,259.388 305.612 M70.618 372.563 C 68.066 376.454,68.098 415.240,70.656 418.738 C 74.315 423.743,95.437 423.239,98.221 418.081 C 100.269 414.285,100.237 380.450,98.179 375.119 L 96.759 371.439 88.979 370.923 C 74.178 369.943,72.222 370.118,70.618 372.563 M122.069 373.725 L 118.472 377.200 118.236 394.800 C 117.941 416.824,118.326 417.828,127.960 420.115 C 131.949 421.061,225.649 422.430,227.265 421.565 C 233.688 418.128,234.426 374.396,228.110 371.502 C 227.390 371.172,204.045 370.755,176.233 370.576 L 125.665 370.251 122.069 373.725 M258.085 371.048 C 248.173 373.409,246.209 414.182,255.761 419.284 C 260.736 421.941,277.517 420.170,279.622 416.765 C 283.820 409.973,280.034 373.703,274.957 372.077 C 271.582 370.996,261.010 370.351,258.085 371.048 M305.697 371.155 C 301.393 372.246,300.519 374.639,299.062 389.323 C 298.023 399.797,298.951 413.194,301.014 417.497 C 303.858 423.432,326.842 423.733,329.514 417.870 C 333.518 409.082,332.350 376.337,327.889 372.300 C 326.126 370.704,310.625 369.905,305.697 371.155 " stroke="none" fill="#ebfeff" fill-rule="evenodd"></path><path id="path2" d="M170.200 0.530 C 169.430 0.743,168.800 1.251,168.800 1.659 C 168.800 2.066,168.160 2.400,167.378 2.400 C 165.819 2.400,164.215 4.036,162.465 7.411 C 161.731 8.826,160.684 9.600,159.502 9.600 C 157.309 9.600,153.600 11.189,153.600 12.128 C 153.600 12.498,153.118 12.800,152.528 12.800 C 151.391 12.800,149.938 16.836,149.294 21.784 C 148.958 24.366,146.547 28.516,143.501 31.756 C 142.871 32.426,137.318 32.785,124.934 32.956 C 104.879 33.233,104.875 33.235,104.825 39.800 L 104.800 43.200 59.400 43.206 C 9.446 43.212,4.095 43.447,1.625 45.748 L -0.008 47.270 0.196 269.195 C 0.362 450.009,0.593 491.313,1.440 492.160 C 3.123 493.843,398.152 493.684,399.217 492.000 C 399.690 491.251,399.980 407.836,399.988 270.200 C 400.001 25.899,400.465 49.724,395.620 45.734 C 393.089 43.649,383.850 43.232,339.800 43.216 L 295.200 43.200 295.200 41.200 C 295.200 40.100,294.840 39.200,294.400 39.200 C 293.960 39.200,293.594 38.390,293.588 37.400 C 293.560 33.256,293.393 33.218,273.630 32.946 C 263.494 32.806,255.200 32.412,255.200 32.070 C 255.200 31.729,254.291 30.403,253.179 29.124 C 252.068 27.846,250.949 25.990,250.693 25.000 C 250.436 24.010,249.906 23.200,249.513 23.200 C 249.121 23.200,248.800 21.220,248.800 18.800 C 248.800 16.380,248.464 14.400,248.054 14.400 C 247.644 14.400,247.079 13.680,246.800 12.800 C 246.521 11.920,245.596 11.200,244.746 11.200 C 243.896 11.200,243.200 10.865,243.200 10.456 C 243.200 10.046,242.390 9.596,241.400 9.456 C 240.154 9.279,239.324 8.346,238.704 6.426 C 238.210 4.901,237.130 3.281,236.304 2.826 C 235.477 2.372,234.543 1.640,234.230 1.200 C 233.652 0.389,173.004 -0.246,170.200 0.530 M110.524 77.000 C 112.436 77.990,117.078 81.950,120.839 85.800 L 127.679 92.800 200.132 92.800 L 272.585 92.800 278.093 86.914 C 281.122 83.677,285.653 79.717,288.162 78.114 L 292.723 75.200 326.807 75.200 C 349.585 75.200,362.088 75.501,364.498 76.108 C 370.735 77.679,370.676 77.407,371.363 107.534 C 372.913 175.449,373.574 184.800,376.821 184.800 C 378.328 184.800,377.573 186.944,374.971 190.056 C 368.393 197.925,367.824 202.909,372.310 213.390 C 374.194 217.790,374.801 220.112,374.301 221.005 C 372.969 223.386,371.918 276.693,371.358 370.390 L 370.800 463.579 368.400 464.753 C 364.795 466.517,319.150 467.058,167.331 467.134 L 36.662 467.200 33.253 464.752 L 29.845 462.304 29.326 434.152 C 29.040 418.669,28.423 404.380,27.954 402.400 C 27.485 400.420,26.920 397.900,26.697 396.800 C 26.454 395.597,27.145 392.888,28.433 390.000 C 33.516 378.602,31.591 369.680,22.745 363.630 L 20.449 362.061 22.356 361.610 C 28.871 360.072,28.947 358.574,27.966 251.600 C 27.000 146.244,27.618 82.542,29.636 79.371 C 32.010 75.641,35.404 75.316,72.524 75.256 C 106.817 75.200,107.072 75.212,110.524 77.000 M71.200 223.978 C 59.067 224.780,56.410 225.375,53.719 227.892 L 51.464 230.000 50.934 246.400 C 50.643 255.420,50.403 300.136,50.402 345.769 L 50.400 428.738 52.194 430.409 C 53.180 431.328,55.594 432.978,57.558 434.076 L 61.130 436.072 198.765 435.766 C 292.680 435.558,337.536 435.189,339.977 434.606 C 349.065 432.432,349.093 432.101,348.945 325.600 C 348.883 280.500,348.602 240.264,348.320 236.186 C 347.666 226.718,346.671 225.804,335.758 224.657 C 326.855 223.721,84.498 223.099,71.200 223.978 M95.977 239.001 C 99.884 240.969,100.240 243.513,99.633 265.119 C 98.933 290.013,99.807 288.771,82.988 288.789 L 72.776 288.800 71.241 286.274 C 64.867 275.793,67.056 240.012,74.185 238.154 C 78.339 237.072,93.301 237.653,95.977 239.001 M226.408 238.922 C 231.064 239.853,231.521 242.013,231.563 263.270 C 231.604 284.077,231.333 285.472,226.893 287.347 C 222.694 289.120,128.619 288.862,124.662 287.067 C 119.079 284.533,118.800 283.438,118.800 264.034 C 118.800 241.086,119.593 239.558,132.131 238.347 C 139.512 237.633,222.497 238.139,226.408 238.922 M272.752 238.464 C 277.797 239.546,279.469 241.736,280.695 248.866 C 283.366 264.403,280.056 284.893,274.400 287.833 C 269.581 290.338,255.088 288.166,252.865 284.607 C 250.213 280.360,249.897 245.865,252.474 241.823 C 254.702 238.327,264.526 236.700,272.752 238.464 M324.999 239.192 C 330.417 240.787,330.800 242.426,330.800 264.000 C 330.800 285.624,330.396 287.628,325.868 288.478 C 319.871 289.603,303.894 288.431,302.685 286.778 C 297.793 280.088,297.212 246.056,301.888 240.111 C 303.945 237.494,317.412 236.959,324.999 239.192 M97.271 306.645 L 99.200 308.889 99.200 329.284 C 99.200 356.580,99.990 355.200,84.372 355.200 C 68.058 355.200,68.400 355.760,68.400 329.059 C 68.400 303.317,67.944 303.979,85.471 304.248 C 95.214 304.398,95.367 304.429,97.271 306.645 M226.578 305.619 C 230.925 306.851,231.360 309.328,231.042 331.083 C 230.736 352.071,230.463 353.162,225.306 353.964 C 218.274 355.058,147.861 355.384,136.183 354.376 C 125.093 353.419,124.710 353.324,122.814 351.071 C 115.481 342.356,116.474 310.633,124.218 306.222 C 127.982 304.078,219.245 303.541,226.578 305.619 M325.906 304.764 C 334.445 308.011,334.448 351.188,325.910 354.434 C 322.554 355.710,306.684 355.388,303.980 353.989 C 297.471 350.624,296.406 312.351,302.660 306.553 C 305.255 304.148,321.081 302.930,325.906 304.764 M274.838 306.414 C 281.803 309.063,284.284 341.741,278.193 350.612 C 273.969 356.764,258.851 356.820,253.480 350.704 C 248.532 345.070,249.884 310.085,255.176 306.815 C 258.169 304.965,270.372 304.717,274.838 306.414 M88.979 370.923 L 96.759 371.439 98.179 375.119 C 100.237 380.450,100.269 414.285,98.221 418.081 C 96.048 422.108,86.146 423.524,76.410 421.199 C 68.789 419.380,68.514 418.305,68.929 391.933 C 69.302 368.261,68.081 369.540,88.979 370.923 M228.110 371.502 C 234.426 374.396,233.688 418.128,227.265 421.565 C 225.649 422.430,131.949 421.061,127.960 420.115 C 118.326 417.828,117.941 416.824,118.236 394.800 L 118.472 377.200 122.069 373.725 L 125.665 370.251 176.233 370.576 C 204.045 370.755,227.390 371.172,228.110 371.502 M274.957 372.077 C 280.034 373.703,283.820 409.973,279.622 416.765 C 277.517 420.170,260.736 421.941,255.761 419.284 C 246.209 414.182,248.173 373.409,258.085 371.048 C 261.010 370.351,271.582 370.996,274.957 372.077 M327.889 372.300 C 332.350 376.337,333.518 409.082,329.514 417.870 C 326.842 423.733,303.858 423.432,301.014 417.497 C 297.375 409.904,298.260 379.208,302.299 372.920 C 304.117 370.091,324.892 369.587,327.889 372.300 " stroke="none" fill="#5a3392" fill-rule="evenodd"></path></g></svg>
